<svg xmlns="http://www.w3.org/2000/svg" width="113" height="49" fill="none"><path fill="#F8F9FA" fill-rule="evenodd" d="M6.736.845a1.91 1.91 0 0 0-1.91 1.91v39.47a1.91 1.91 0 0 0 1.91 1.91h39.47a1.91 1.91 0 0 0 1.91-1.91V2.755a1.91 1.91 0 0 0-1.91-1.91H6.736Zm29.938 38.602c1.18.502 2.517.753 4.007.753 1.53 0 2.856-.291 3.979-.873 1.123-.582 1.975-1.365 2.556-2.348.6-.984.9-2.078.9-3.282 0-1.264-.3-2.298-.9-3.1-.6-.803-1.317-1.415-2.15-1.837-.813-.421-1.878-.863-3.194-1.324-1.316-.442-2.285-.853-2.904-1.235-.62-.381-.93-.913-.93-1.595 0-.622.184-1.094.552-1.415.368-.341.852-.512 1.452-.512.697 0 1.268.2 1.714.602.445.382.687.913.726 1.596h5.372c-.096-1.987-.832-3.532-2.207-4.636-1.374-1.124-3.184-1.686-5.43-1.686-2.207 0-3.998.562-5.373 1.686-1.375 1.104-2.062 2.639-2.062 4.606 0 1.324.3 2.398.9 3.22.6.824 1.317 1.446 2.15 1.867.832.422 1.907.843 3.223 1.265.91.28 1.607.531 2.091.752.503.221.92.502 1.249.843.348.341.522.773.522 1.295 0 .622-.212 1.114-.638 1.475-.426.341-1.007.512-1.743.512-.716 0-1.297-.201-1.742-.602-.446-.422-.707-1.024-.784-1.807h-5.286c.039 1.385.407 2.57 1.104 3.552.716.984 1.665 1.727 2.846 2.228Zm-6.219-6.201v-14.39H25.49v14.39c0 .762-.164 1.344-.493 1.746-.33.401-.794.602-1.394.602-.659 0-1.162-.22-1.51-.662-.349-.462-.523-1.134-.523-2.017h-4.937c0 2.328.649 4.124 1.946 5.388 1.297 1.265 3.02 1.897 5.169 1.897 2.052 0 3.678-.602 4.879-1.806 1.22-1.205 1.83-2.92 1.83-5.148Z" clip-rule="evenodd"/><path fill="url(#a)" d="M38.323 48.071H7.26c-3.516 0-6.369-2.887-6.369-6.446V8.682c0-.515.43-.95.938-.95s.938.435.938.95v32.943c0 2.53 2.032 4.548 4.493 4.548h31.064c.508 0 .938.435.938.949-.04.514-.43.949-.938.949Z"/><path fill="#F8F9FA" d="M58.516 35.772v4.196h-2.57c-1.832 0-3.26-.434-4.285-1.302-1.024-.887-1.536-2.324-1.536-4.312V27.93h-2.01v-4.109h2.01v-3.935h5.052v3.935h3.31v4.11h-3.31v6.481c0 .483.118.83.355 1.042.236.212.63.318 1.182.318h1.802ZM59.144 31.866c0-1.66.315-3.116.945-4.37.65-1.254 1.527-2.218 2.63-2.893 1.103-.676 2.334-1.013 3.693-1.013 1.163 0 2.177.231 3.044.694.886.463 1.566 1.07 2.038 1.823v-2.286h5.053v16.147h-5.053v-2.286c-.492.753-1.181 1.36-2.068 1.823-.867.463-1.881.695-3.043.695-1.34 0-2.56-.338-3.664-1.013-1.103-.694-1.98-1.669-2.63-2.923-.63-1.273-.945-2.74-.945-4.398Zm12.35.029c0-1.235-.354-2.21-1.063-2.923-.69-.714-1.537-1.07-2.541-1.07a3.49 3.49 0 0 0-2.57 1.07c-.69.695-1.035 1.66-1.035 2.894 0 1.234.345 2.218 1.034 2.951a3.49 3.49 0 0 0 2.57 1.071c1.005 0 1.852-.357 2.542-1.07.709-.714 1.063-1.689 1.063-2.923ZM78.016 31.895c0-1.679.344-3.145 1.034-4.399a7.332 7.332 0 0 1 2.925-2.893c1.26-.676 2.698-1.013 4.314-1.013 2.068 0 3.791.53 5.17 1.591 1.399 1.061 2.315 2.556 2.748 4.486H88.83c-.453-1.235-1.33-1.852-2.63-1.852-.926 0-1.664.357-2.216 1.07-.551.695-.827 1.698-.827 3.01 0 1.312.276 2.324.827 3.038.552.695 1.29 1.042 2.216 1.042 1.3 0 2.177-.617 2.63-1.852h5.377c-.433 1.89-1.35 3.376-2.748 4.456-1.398 1.08-3.122 1.62-5.17 1.62-1.616 0-3.053-.337-4.314-1.012a7.33 7.33 0 0 1-2.925-2.894c-.69-1.254-1.034-2.72-1.034-4.398ZM105.803 39.968l-5.023-6.771v6.771h-5.052V18.555h5.052V30.39l4.994-6.569h6.234l-6.855 8.103 6.914 8.044h-6.264Z"/><defs><linearGradient id="a" x1=".878" x2="39.231" y1="27.916" y2="27.916" gradientUnits="userSpaceOnUse"><stop stop-color="#40CBF6"/><stop offset="1" stop-color="#82C041"/></linearGradient></defs></svg>